name analog
datacolumns 19
datarows 23
range 0.0 0.011
endheader
time	ground_force_vx	ground_force_vy	ground_force_vz	ground_force_px	ground_force_py	ground_force_pz	l_ground_force_vx	l_ground_force_vy	l_ground_force_vz	l_ground_force_px	l_ground_force_py	l_ground_force_pz	ground_torque_x	ground_torque_y	ground_torque_z	l_ground_torque_x	l_ground_torque_y	l_ground_torque_z
0.0	-0.0	-0.0	-0.0	-0.0	-0.0	-0.0	3.759275197982788	-3.017848491668701	-741.875	-0.0	-0.0	-0.0	-0.0	-0.0	-0.0	244705.046875	-6087.384765625	1060.432373046875
0.0005	-0.0	-0.0	-0.0	-0.0	-0.0	-0.0	3.973599672317505	-2.829509735107422	-741.0740966796875	-0.0	-0.0	-0.0	-0.0	-0.0	-0.0	244432.53125	-6412.39990234375	1079.796630859375
0.001	-0.0	-0.0	-0.0	-0.0	-0.0	-0.0	4.277220726013184	-3.044877052307129	-738.9014282226562	-0.0	-0.0	-0.0	-0.0	-0.0	-0.0	244107.65625	-6747.54931640625	1245.5902099609375
0.0015	-0.0	-0.0	-0.0	-0.0	-0.0	-0.0	4.612960815429688	-3.776585102081299	-738.2509155273438	-0.0	-0.0	-0.0	-0.0	-0.0	-0.0	243945.53125	-7222.146484375	1288.1363525390625
0.002	-0.0	-0.0	-0.0	-0.0	-0.0	-0.0	4.791410446166992	-3.793624877929688	-739.3878784179688	-0.0	-0.0	-0.0	-0.0	-0.0	-0.0	243839.09375	-7616.09619140625	1489.514892578125
0.0025	-0.0	-0.0	-0.0	-0.0	-0.0	-0.0	5.166051864624023	-3.906925916671753	-739.041015625	-0.0	-0.0	-0.0	-0.0	-0.0	-0.0	243861.40625	-7850.435546875	1663.89990234375
0.003	-0.0	-0.0	-0.0	-0.0	-0.0	-0.0	5.26652717590332	-4.183650970458984	-740.4632568359375	-0.0	-0.0	-0.0	-0.0	-0.0	-0.0	243769.078125	-8266.2255859375	1743.7042236328125
0.0035	-0.0	-0.0	-0.0	-0.0	-0.0	-0.0	5.604640007019043	-4.411401271820068	-740.157470703125	-0.0	-0.0	-0.0	-0.0	-0.0	-0.0	243950.40625	-8737.9853515625	1747.7401123046875
0.004	-0.0	-0.0	-0.0	-0.0	-0.0	-0.0	5.7019453048706055	-4.534468650817871	-740.6671142578125	-0.0	-0.0	-0.0	-0.0	-0.0	-0.0	244074.359375	-9287.787109375	1785.78369140625
0.0045000000000000005	-0.0	-0.0	-0.0	-0.0	-0.0	-0.0	5.828725337982178	-4.785336017608643	-742.01025390625	-0.0	-0.0	-0.0	-0.0	-0.0	-0.0	244065.5625	-9283.2783203125	1776.035888671875
0.005	-0.0	-0.0	-0.0	-0.0	-0.0	-0.0	5.919243335723877	-4.904045104980469	-742.2337646484375	-0.0	-0.0	-0.0	-0.0	-0.0	-0.0	243928.796875	-9770.759765625	1740.056640625
0.0055	-0.0	-0.0	-0.0	-0.0	-0.0	-0.0	6.068538665771484	-4.926196575164795	-743.0587768554688	-0.0	-0.0	-0.0	-0.0	-0.0	-0.0	243743.96875	-9909.904296875	1711.4722900390625
0.006	-0.0	-0.0	-0.0	-0.0	-0.0	-0.0	6.15800666809082	-5.096466541290283	-741.7921752929688	-0.0	-0.0	-0.0	-0.0	-0.0	-0.0	243569.046875	-10259.837890625	1757.1051025390625
0.006500000000000001	-0.0	-0.0	-0.0	-0.0	-0.0	-0.0	6.281822204589844	-5.415277004241943	-742.0123291015625	-0.0	-0.0	-0.0	-0.0	-0.0	-0.0	243520.84375	-10568.791015625	1643.432373046875
0.007	-0.0	-0.0	-0.0	-0.0	-0.0	-0.0	6.206263065338135	-5.638828277587891	-742.4545288085938	-0.0	-0.0	-0.0	-0.0	-0.0	-0.0	243315.765625	-10864.0615234375	1587.5098876953125
0.0075	-0.0	-0.0	-0.0	-0.0	-0.0	-0.0	5.962750434875488	-6.129984855651856	-741.8809814453125	-0.0	-0.0	-0.0	-0.0	-0.0	-0.0	243122.78125	-11209.0654296875	1610.165771484375
0.008	-0.0	-0.0	-0.0	-0.0	-0.0	-0.0	6.34541654586792	-6.087813377380371	-741.8244018554688	-0.0	-0.0	-0.0	-0.0	-0.0	-0.0	242748.296875	-11467.681640625	1579.04052734375
0.0085	-0.0	-0.0	-0.0	-0.0	-0.0	-0.0	6.440946102142334	-6.386351108551025	-741.3563232421875	-0.0	-0.0	-0.0	-0.0	-0.0	-0.0	242384.46875	-11806.5078125	1581.1488037109375
0.009000000000000001	-0.0	-0.0	-0.0	-0.0	-0.0	-0.0	6.880038261413574	-6.778373718261719	-741.3518676757812	-0.0	-0.0	-0.0	-0.0	-0.0	-0.0	242174.8125	-12116.771484375	1689.4775390625
0.0095	-0.0	-0.0	-0.0	-0.0	-0.0	-0.0	6.723548889160156	-7.346672058105469	-743.4796752929688	-0.0	-0.0	-0.0	-0.0	-0.0	-0.0	241792.15625	-12365.71875	1711.4832763671875
0.01	-0.0	-0.0	-0.0	-0.0	-0.0	-0.0	6.920314311981201	-7.630291938781738	-742.349609375	-0.0	-0.0	-0.0	-0.0	-0.0	-0.0	241922.21875	-12855.302734375	1879.380126953125
0.0105	-0.0	-0.0	-0.0	-0.0	-0.0	-0.0	7.247770309448242	-7.463150978088379	-741.8765869140625	-0.0	-0.0	-0.0	-0.0	-0.0	-0.0	241757.4375	-13279.1181640625	1806.831298828125
0.011	-0.0	-0.0	-0.0	-0.0	-0.0	-0.0	7.509349822998047	-7.3749847412109375	-742.61083984375	-0.0	-0.0	-0.0	-0.0	-0.0	-0.0	241390.234375	-13575.5859375	1881.189208984375
